<mxfile host="app.diagrams.net" modified="2023-09-08T21:10:09.851Z" agent="Mozilla/5.0 (Macintosh; Intel Mac OS X 10_15_7) AppleWebKit/537.36 (KHTML, like Gecko) Chrome/116.0.0.0 Safari/537.36" etag="DkOEs6eLIsMUK3GVBLi0" version="21.7.2" type="github">
  <diagram name="Page-1" id="U1QrUM_mXvRAd06wtqaj">
    <mxGraphModel dx="794" dy="517" grid="0" gridSize="10" guides="1" tooltips="1" connect="1" arrows="1" fold="1" page="1" pageScale="1" pageWidth="827" pageHeight="1169" background="#FCF8F0" math="0" shadow="1">
      <root>
        <mxCell id="0" />
        <mxCell id="1" parent="0" />
        <mxCell id="hqk9BJjAE_9QEA6HHh6n-40" style="edgeStyle=orthogonalEdgeStyle;rounded=0;sketch=1;hachureGap=4;jiggle=2;curveFitting=1;orthogonalLoop=1;jettySize=auto;html=1;exitX=0;exitY=0.5;exitDx=0;exitDy=0;fontFamily=Architects Daughter;fontSource=https%3A%2F%2Ffonts.googleapis.com%2Fcss%3Ffamily%3DArchitects%2BDaughter;fontSize=16;entryX=0.161;entryY=-0.028;entryDx=0;entryDy=0;entryPerimeter=0;" parent="1" source="hqk9BJjAE_9QEA6HHh6n-1" target="hqk9BJjAE_9QEA6HHh6n-4" edge="1">
          <mxGeometry relative="1" as="geometry">
            <mxPoint x="205.99999999999977" y="189.090909090909" as="targetPoint" />
          </mxGeometry>
        </mxCell>
        <mxCell id="hqk9BJjAE_9QEA6HHh6n-1" value="&lt;span style=&quot;font-size: 16px;&quot;&gt;Get two random accounts from data where the second account is not the same as the first one.&lt;/span&gt;" style="rounded=0;whiteSpace=wrap;html=1;sketch=1;hachureGap=4;jiggle=2;curveFitting=1;fontFamily=Verdana;fontSize=16;fontColor=#67AB9F;fontStyle=1" parent="1" vertex="1">
          <mxGeometry x="263.5" y="137" width="319" height="126" as="geometry" />
        </mxCell>
        <mxCell id="hqk9BJjAE_9QEA6HHh6n-20" style="edgeStyle=orthogonalEdgeStyle;rounded=0;sketch=1;hachureGap=4;jiggle=2;curveFitting=1;orthogonalLoop=1;jettySize=auto;html=1;exitX=0.5;exitY=1;exitDx=0;exitDy=0;entryX=0.5;entryY=0;entryDx=0;entryDy=0;fontFamily=Architects Daughter;fontSource=https%3A%2F%2Ffonts.googleapis.com%2Fcss%3Ffamily%3DArchitects%2BDaughter;fontSize=16;" parent="1" source="hqk9BJjAE_9QEA6HHh6n-4" target="hqk9BJjAE_9QEA6HHh6n-8" edge="1">
          <mxGeometry relative="1" as="geometry" />
        </mxCell>
        <mxCell id="hqk9BJjAE_9QEA6HHh6n-4" value="&lt;span style=&quot;font-size: 15px;&quot;&gt;Ask the player if they think &lt;b style=&quot;font-size: 15px;&quot;&gt;account A&lt;/b&gt; or &lt;b style=&quot;font-size: 15px;&quot;&gt;account B&lt;/b&gt; has the most followers&lt;/span&gt;" style="rounded=0;whiteSpace=wrap;html=1;sketch=1;hachureGap=4;jiggle=2;curveFitting=1;fontFamily=Verdana;fontSize=15;" parent="1" vertex="1">
          <mxGeometry x="110" y="310" width="254" height="90" as="geometry" />
        </mxCell>
        <mxCell id="hqk9BJjAE_9QEA6HHh6n-16" style="edgeStyle=orthogonalEdgeStyle;rounded=0;sketch=1;hachureGap=4;jiggle=2;curveFitting=1;orthogonalLoop=1;jettySize=auto;html=1;exitX=0.5;exitY=1;exitDx=0;exitDy=0;entryX=0.5;entryY=0;entryDx=0;entryDy=0;fontFamily=Verdana;fontSize=16;" parent="1" source="hqk9BJjAE_9QEA6HHh6n-8" target="hqk9BJjAE_9QEA6HHh6n-11" edge="1">
          <mxGeometry relative="1" as="geometry" />
        </mxCell>
        <mxCell id="hqk9BJjAE_9QEA6HHh6n-8" value="&lt;span style=&quot;font-size: 16px;&quot;&gt;Figure out which account has the more followers and return it using a function&lt;br style=&quot;font-size: 16px;&quot;&gt;&lt;/span&gt;" style="rounded=0;whiteSpace=wrap;html=1;sketch=1;hachureGap=4;jiggle=2;curveFitting=1;fontFamily=Verdana;fontSize=16;" parent="1" vertex="1">
          <mxGeometry x="124" y="448" width="226" height="80" as="geometry" />
        </mxCell>
        <mxCell id="hqk9BJjAE_9QEA6HHh6n-28" style="edgeStyle=orthogonalEdgeStyle;rounded=0;sketch=1;hachureGap=4;jiggle=2;curveFitting=1;orthogonalLoop=1;jettySize=auto;html=1;exitX=1;exitY=0.5;exitDx=0;exitDy=0;fontFamily=Architects Daughter;fontSource=https%3A%2F%2Ffonts.googleapis.com%2Fcss%3Ffamily%3DArchitects%2BDaughter;fontSize=16;" parent="1" source="hqk9BJjAE_9QEA6HHh6n-10" edge="1">
          <mxGeometry relative="1" as="geometry">
            <mxPoint x="490" y="873" as="targetPoint" />
          </mxGeometry>
        </mxCell>
        <mxCell id="hqk9BJjAE_9QEA6HHh6n-41" style="edgeStyle=orthogonalEdgeStyle;rounded=0;sketch=1;hachureGap=4;jiggle=2;curveFitting=1;orthogonalLoop=1;jettySize=auto;html=1;exitX=0.5;exitY=1;exitDx=0;exitDy=0;entryX=0;entryY=0.5;entryDx=0;entryDy=0;fontFamily=Architects Daughter;fontSource=https%3A%2F%2Ffonts.googleapis.com%2Fcss%3Ffamily%3DArchitects%2BDaughter;fontSize=16;" parent="1" source="hqk9BJjAE_9QEA6HHh6n-10" target="hqk9BJjAE_9QEA6HHh6n-19" edge="1">
          <mxGeometry relative="1" as="geometry" />
        </mxCell>
        <mxCell id="hqk9BJjAE_9QEA6HHh6n-10" value="&lt;span style=&quot;font-size: 16px;&quot;&gt;Increase player&#39;s score by one.&amp;nbsp;&lt;br style=&quot;font-size: 16px;&quot;&gt;&lt;/span&gt;" style="rounded=0;whiteSpace=wrap;html=1;sketch=1;hachureGap=4;jiggle=2;curveFitting=1;fontFamily=Verdana;fontSize=16;" parent="1" vertex="1">
          <mxGeometry x="118" y="808" width="240" height="130" as="geometry" />
        </mxCell>
        <mxCell id="hqk9BJjAE_9QEA6HHh6n-15" style="edgeStyle=orthogonalEdgeStyle;rounded=0;sketch=1;hachureGap=4;jiggle=2;curveFitting=1;orthogonalLoop=1;jettySize=auto;html=1;exitX=0.5;exitY=1;exitDx=0;exitDy=0;entryX=0.5;entryY=0;entryDx=0;entryDy=0;fontFamily=Verdana;fontSize=16;" parent="1" source="hqk9BJjAE_9QEA6HHh6n-11" target="hqk9BJjAE_9QEA6HHh6n-10" edge="1">
          <mxGeometry relative="1" as="geometry" />
        </mxCell>
        <mxCell id="hqk9BJjAE_9QEA6HHh6n-11" value="&lt;span style=&quot;font-size: 16px;&quot;&gt;Did the player guess right or wrong?&lt;br style=&quot;font-size: 16px;&quot;&gt;&lt;/span&gt;" style="rounded=0;whiteSpace=wrap;html=1;sketch=1;hachureGap=4;jiggle=2;curveFitting=1;fontFamily=Verdana;fontSize=16;" parent="1" vertex="1">
          <mxGeometry x="124" y="585" width="226" height="110" as="geometry" />
        </mxCell>
        <mxCell id="hqk9BJjAE_9QEA6HHh6n-17" value="Wrong" style="text;html=1;align=center;verticalAlign=middle;resizable=0;points=[];autosize=1;strokeColor=none;fillColor=none;fontSize=30;fontFamily=Architects Daughter;" parent="1" vertex="1">
          <mxGeometry x="118" y="957" width="120" height="50" as="geometry" />
        </mxCell>
        <mxCell id="hqk9BJjAE_9QEA6HHh6n-18" value="Right" style="text;html=1;align=center;verticalAlign=middle;resizable=0;points=[];autosize=1;strokeColor=none;fillColor=none;fontSize=30;fontFamily=Architects Daughter;" parent="1" vertex="1">
          <mxGeometry x="378" y="819" width="90" height="50" as="geometry" />
        </mxCell>
        <mxCell id="hqk9BJjAE_9QEA6HHh6n-19" value="&lt;span style=&quot;font-size: 16px;&quot;&gt;&lt;b&gt;End the game and display the final score.&lt;/b&gt;&lt;br style=&quot;font-size: 16px;&quot;&gt;&lt;/span&gt;" style="rounded=0;whiteSpace=wrap;html=1;sketch=1;hachureGap=4;jiggle=2;curveFitting=1;fontFamily=Verdana;fontSize=16;labelBackgroundColor=none;fontColor=#8f1414;labelBorderColor=none;" parent="1" vertex="1">
          <mxGeometry x="278.88" y="993" width="301.25" height="111" as="geometry" />
        </mxCell>
        <mxCell id="hqk9BJjAE_9QEA6HHh6n-25" style="edgeStyle=orthogonalEdgeStyle;rounded=0;sketch=1;hachureGap=4;jiggle=2;curveFitting=1;orthogonalLoop=1;jettySize=auto;html=1;exitX=0.5;exitY=0;exitDx=0;exitDy=0;fontFamily=Architects Daughter;fontSource=https%3A%2F%2Ffonts.googleapis.com%2Fcss%3Ffamily%3DArchitects%2BDaughter;fontSize=16;entryX=0.5;entryY=1;entryDx=0;entryDy=0;" parent="1" source="hqk9BJjAE_9QEA6HHh6n-24" target="hqk9BJjAE_9QEA6HHh6n-30" edge="1">
          <mxGeometry relative="1" as="geometry">
            <mxPoint x="610" y="708" as="targetPoint" />
          </mxGeometry>
        </mxCell>
        <mxCell id="hqk9BJjAE_9QEA6HHh6n-24" value="&lt;span style=&quot;font-size: 16px;&quot;&gt;Take the guessed account and store it as account A for the next round&lt;br style=&quot;font-size: 16px;&quot;&gt;&lt;/span&gt;" style="rounded=0;whiteSpace=wrap;html=1;sketch=1;hachureGap=4;jiggle=2;curveFitting=1;fontFamily=Verdana;fontSize=16;" parent="1" vertex="1">
          <mxGeometry x="490" y="808" width="191" height="130" as="geometry" />
        </mxCell>
        <mxCell id="hqk9BJjAE_9QEA6HHh6n-26" value="No" style="text;html=1;align=center;verticalAlign=middle;resizable=0;points=[];autosize=1;strokeColor=none;fillColor=none;fontSize=30;fontFamily=Architects Daughter;" parent="1" vertex="1">
          <mxGeometry x="591" y="505" width="60" height="50" as="geometry" />
        </mxCell>
        <mxCell id="hqk9BJjAE_9QEA6HHh6n-31" style="edgeStyle=orthogonalEdgeStyle;rounded=0;sketch=1;hachureGap=4;jiggle=2;curveFitting=1;orthogonalLoop=1;jettySize=auto;html=1;exitX=0.5;exitY=0;exitDx=0;exitDy=0;fontFamily=Architects Daughter;fontSource=https%3A%2F%2Ffonts.googleapis.com%2Fcss%3Ffamily%3DArchitects%2BDaughter;fontSize=16;entryX=0.5;entryY=1;entryDx=0;entryDy=0;" parent="1" source="hqk9BJjAE_9QEA6HHh6n-30" target="hqk9BJjAE_9QEA6HHh6n-32" edge="1">
          <mxGeometry relative="1" as="geometry">
            <mxPoint x="610.3333333333335" y="468" as="targetPoint" />
          </mxGeometry>
        </mxCell>
        <mxCell id="hqk9BJjAE_9QEA6HHh6n-43" style="edgeStyle=orthogonalEdgeStyle;rounded=0;sketch=1;hachureGap=4;jiggle=2;curveFitting=1;orthogonalLoop=1;jettySize=auto;html=1;exitX=1;exitY=0.5;exitDx=0;exitDy=0;entryX=1;entryY=0.5;entryDx=0;entryDy=0;fontFamily=Architects Daughter;fontSource=https%3A%2F%2Ffonts.googleapis.com%2Fcss%3Ffamily%3DArchitects%2BDaughter;fontSize=16;" parent="1" source="hqk9BJjAE_9QEA6HHh6n-30" target="hqk9BJjAE_9QEA6HHh6n-1" edge="1">
          <mxGeometry relative="1" as="geometry">
            <Array as="points">
              <mxPoint x="730" y="660" />
              <mxPoint x="730" y="200" />
            </Array>
          </mxGeometry>
        </mxCell>
        <mxCell id="hqk9BJjAE_9QEA6HHh6n-30" value="&lt;span style=&quot;font-size: 16px;&quot;&gt;Is this the second consecutive time that this account has been guessed?&lt;br style=&quot;font-size: 16px;&quot;&gt;&lt;/span&gt;" style="rounded=0;whiteSpace=wrap;html=1;sketch=1;hachureGap=4;jiggle=2;curveFitting=1;fontFamily=Verdana;fontSize=16;" parent="1" vertex="1">
          <mxGeometry x="490" y="595" width="191" height="130" as="geometry" />
        </mxCell>
        <mxCell id="hqk9BJjAE_9QEA6HHh6n-42" style="edgeStyle=orthogonalEdgeStyle;rounded=0;sketch=1;hachureGap=4;jiggle=2;curveFitting=1;orthogonalLoop=1;jettySize=auto;html=1;exitX=0.5;exitY=0;exitDx=0;exitDy=0;entryX=1;entryY=0.25;entryDx=0;entryDy=0;fontFamily=Architects Daughter;fontSource=https%3A%2F%2Ffonts.googleapis.com%2Fcss%3Ffamily%3DArchitects%2BDaughter;fontSize=16;" parent="1" source="hqk9BJjAE_9QEA6HHh6n-32" target="hqk9BJjAE_9QEA6HHh6n-4" edge="1">
          <mxGeometry relative="1" as="geometry" />
        </mxCell>
        <mxCell id="hqk9BJjAE_9QEA6HHh6n-32" value="&lt;span style=&quot;font-size: 16px;&quot;&gt;Keep account A as the same as was guessed this round and only retrieve account B making sure B is not the same as A.&lt;br style=&quot;font-size: 16px;&quot;&gt;&lt;/span&gt;" style="rounded=0;whiteSpace=wrap;html=1;sketch=1;hachureGap=4;jiggle=2;curveFitting=1;fontFamily=Verdana;fontSize=16;" parent="1" vertex="1">
          <mxGeometry x="490" y="372" width="193" height="130" as="geometry" />
        </mxCell>
        <mxCell id="hqk9BJjAE_9QEA6HHh6n-35" value="Yes" style="text;html=1;align=center;verticalAlign=middle;resizable=0;points=[];autosize=1;strokeColor=none;fillColor=none;fontSize=30;fontFamily=Architects Daughter;" parent="1" vertex="1">
          <mxGeometry x="683" y="670" width="70" height="50" as="geometry" />
        </mxCell>
        <mxCell id="hqk9BJjAE_9QEA6HHh6n-36" value="&lt;font style=&quot;font-size: 45px;&quot;&gt;Higher or Lower Game Flowchart&lt;/font&gt;" style="text;html=1;align=center;verticalAlign=middle;resizable=0;points=[];autosize=1;strokeColor=none;fillColor=none;fontSize=20;fontFamily=Architects Daughter;" parent="1" vertex="1">
          <mxGeometry x="59" y="38" width="741" height="66" as="geometry" />
        </mxCell>
      </root>
    </mxGraphModel>
  </diagram>
</mxfile>
